<?xml version="1.0" standalone="no"?><!DOCTYPE svg PUBLIC "-//W3C//DTD SVG 1.1//EN" "http://www.w3.org/Graphics/SVG/1.1/DTD/svg11.dtd"><svg t="1683302153937" class="icon" viewBox="0 0 1024 1024" version="1.1" xmlns="http://www.w3.org/2000/svg" p-id="36774" xmlns:xlink="http://www.w3.org/1999/xlink" width="300" height="300"><path d="M533.874 192.01c-60.466 0-113.028 44.248-118.246 103.558-0.124 0.906-0.218 1.844-0.218 2.782 0 0.094-0.032 0.218-0.032 0.344 0 11.782 9.562 21.312 21.344 21.312s21.344-9.532 21.344-21.312h0.124c1.75-18.468 10.688-31.686 18.56-39.936 14.562-15.312 35.406-24.062 57.124-24.062 41.844 0 75.874 34.032 75.874 75.874 0 15.968-6.654 30.624-19.842 43.53-15.406 15.062-38.312 26.688-66.282 33.624-11.466 2.844-21.998 6.438-31.28 9.624l-1.688 0.562v7.438h-0.032v75.558h42.654v-51.624c0.188-0.032 0.376-0.094 0.594-0.156 70.938-17.562 118.558-61.748 118.558-118.558 0.002-65.466-53.088-118.558-118.556-118.558z" fill="#CCD1D9" p-id="36775"></path><path d="M983.548 697.182L511.938 448.064 40.42 697.182C16.264 709.65 0.016 732.992 0.016 759.806c0 39.876 35.998 72.186 80.434 72.186H943.518c44.438 0 80.466-32.31 80.466-72.186 0-26.814-16.278-50.156-40.436-62.624z m-40.03 92.154H80.45c-20.466 0-37.78-13.532-37.78-29.532 0-9.876 6.468-19.124 17.312-24.718l0.188-0.094 0.188-0.094 451.58-238.586 451.674 238.586 0.188 0.094 0.188 0.094c10.844 5.594 17.312 14.844 17.312 24.718-0.002 16-17.314 29.532-37.782 29.532z" fill="#E6E9ED" p-id="36776"></path></svg>